<svg id="undraw_celebration_re_kc9k" xmlns="http://www.w3.org/2000/svg" width="837.875" height="658.418" viewBox="0 0 837.875 658.418">
  <path id="パス_15" data-name="パス 15" d="M434.682,374.668c-4.484-5.81-10.82-11.185-11.222-18.354-.368-6.575,4.535-13.1,2.467-19.394-1.59-4.837-6.835-7.755-11.961-9.3a46.486,46.486,0,0,0-29.873,1.15l.519-.366c-5.834-2.078-12.654.067-17.245,4.041s-7.319,9.482-9.436,15-3.757,11.242-6.7,16.417-7.445,9.881-13.388,11.67c1.989,3.968,8.208,5.329,11.855,2.6a15,15,0,0,0,2.494-2.579l7.3-8.873c2.5,4.451-1.236,10.6,1.84,14.717,1.586,2.125,4.484,2.932,7.175,3.511A129.781,129.781,0,0,0,432,382.547c1.659-.489,3.489-1.162,4.178-2.664C436.972,378.15,435.861,376.2,434.682,374.668Z" transform="translate(-181.067 -120.791)" fill="#2f2e41"/>
  <path id="パス_16" data-name="パス 16" d="M494.317,397.34a11.27,11.27,0,0,0-.256,1.755l-45.97,26.52-11.174-6.432-11.912,15.594,18.674,13.31a8.561,8.561,0,0,0,10.271-.25l47.4-37.4a11.233,11.233,0,1,0-7.037-13.1Z" transform="translate(-181.067 -120.791)" fill="#ffb7b7"/>
  <path id="パス_17" data-name="パス 17" d="M446.555,426.871,431.7,446.127a4.816,4.816,0,0,1-7.281.4L407.6,429.06A13.374,13.374,0,1,1,424,407.932l21.1,11.8a4.815,4.815,0,0,1,1.461,7.144Z" transform="translate(-181.067 -120.791)" fill="#0a9"/>
  <path id="パス_18" data-name="パス 18" d="M245.04,641.589h13.119l6.241-50.6H245.037Z" fill="#ffb7b7"/>
  <path id="パス_19" data-name="パス 19" d="M422.76,758.1H448.6a16.466,16.466,0,0,1,16.465,16.464v.536l-42.3,0Z" transform="translate(-181.067 -120.791)" fill="#2f2e41"/>
  <path id="パス_20" data-name="パス 20" d="M155.149,641.589h13.12l6.241-50.6H155.147Z" fill="#ffb7b7"/>
  <path id="パス_21" data-name="パス 21" d="M332.87,758.1h25.838a16.466,16.466,0,0,1,16.465,16.464v.536l-42.3,0Z" transform="translate(-181.067 -120.791)" fill="#2f2e41"/>
  <circle id="楕円形_8" data-name="楕円形 8" cx="22.674" cy="22.674" r="22.674" transform="translate(189.612 264.314) rotate(-83.735)" fill="#ffb7b7"/>
  <path id="パス_22" data-name="パス 22" d="M408.957,399.03l13.358,6.617s14.924,25.937,6.363,50.549c-4.156,11.95,7.548,50.042,7.548,50.042s18.135,172.543,18.192,225.8c-22.53,3.464-43.932,7.744-45-2.957s-12.784-137.229-12.784-137.229-16.109,140.44-28.951,142.58-38.524-1.07-38.524-1.07,20.39-205.717,34.3-218.559l2.14-10.7-.057-96.057,16.028-7.649Z" transform="translate(-181.067 -120.791)" fill="#2f2e41"/>
  <path id="パス_23" data-name="パス 23" d="M361.173,544.856a11.5,11.5,0,0,0,3.522-17.272l15.535-103.547-20.3-.974-12.11,103.118a11.558,11.558,0,0,0,13.349,18.675Z" transform="translate(-181.067 -120.791)" fill="#ffb7b7"/>
  <path id="パス_24" data-name="パス 24" d="M379.788,449.982l-24.273-1.532a4.816,4.816,0,0,1-4.406-5.81l5.058-23.714a13.374,13.374,0,1,1,26.689,1.764l2.034,24.083a4.816,4.816,0,0,1-5.1,5.21Z" transform="translate(-181.067 -120.791)" fill="#0a9"/>
  <path id="パス_25" data-name="パス 25" d="M419.454,350.3c-.884-4.008-3.753-7.329-7.059-9.761a28.911,28.911,0,0,0-36.959,2.248,18.887,18.887,0,0,0-5.708,9.149,11.221,11.221,0,0,0,2.392,10.218l.453.284c-.411-1.742.943-3.483,2.559-4.252a20.448,20.448,0,0,1,5.221-1.171,19.193,19.193,0,0,0,13.009-9.18,21.675,21.675,0,0,0,12.421,12.945c3,1.172,11.227,2.783,14.08,1.3C423.5,360.179,420.337,354.309,419.454,350.3Z" transform="translate(-181.067 -120.791)" fill="#2f2e41"/>
  <path id="Path_438" data-name="Path 438" d="M252.622,731.121A24.215,24.215,0,0,0,276,727c8.19-6.874,10.758-18.2,12.847-28.682l6.18-31.017-12.938,8.908c-9.3,6.406-18.818,13.019-25.26,22.3s-9.252,21.947-4.078,31.988" transform="translate(-181.067 -120.791)" fill="#0a9"/>
  <path id="Path_439" data-name="Path 439" d="M254.619,770.832c-1.628-11.864-3.3-23.881-2.159-35.872,1.015-10.649,4.264-21.049,10.878-29.579a49.205,49.205,0,0,1,12.625-11.44c1.262-.8,2.424,1.2,1.167,2a46.78,46.78,0,0,0-18.5,22.326c-4.029,10.246-4.675,21.416-3.982,32.3.419,6.582,1.311,13.121,2.206,19.653a1.2,1.2,0,0,1-.808,1.423,1.163,1.163,0,0,1-1.423-.808Z" transform="translate(-181.067 -120.791)" fill="#f2f2f2"/>
  <path id="Path_442" data-name="Path 442" d="M266.34,751.8a17.825,17.825,0,0,0,15.531,8.019c7.864-.373,14.418-5.86,20.317-11.07l17.452-15.409-11.55-.553c-8.306-.4-16.827-.771-24.738,1.793S268.145,743.3,266.7,751.491" transform="translate(-181.067 -120.791)" fill="#0a9"/>
  <path id="Path_443" data-name="Path 443" d="M250.016,777.651c7.84-13.871,16.932-29.288,33.181-34.216a37.027,37.027,0,0,1,13.955-1.441c1.482.128,1.112,2.412-.367,2.285a34.4,34.4,0,0,0-22.272,5.892c-6.28,4.275-11.17,10.218-15.308,16.519-2.535,3.861-4.806,7.884-7.076,11.9C251.4,779.878,249.282,778.95,250.016,777.651Z" transform="translate(-181.067 -120.791)" fill="#f2f2f2"/>
  <path id="パス_26" data-name="パス 26" d="M779.778,521.2c-14.711-19.687-41.636-24.438-55.016-14.44s-16.453,37.166-1.742,56.853c13.617,18.223,38.288,23.193,51.876,16.366a1.706,1.706,0,0,0-.008.647l.766,3.787a1.728,1.728,0,0,0,2.758,1.019l6.487-5.068a1.728,1.728,0,0,0-.321-2.922l-3.49-1.66a1.71,1.71,0,0,0-.384-.121C791.179,564.591,793.425,539.466,779.778,521.2Z" transform="translate(-181.067 -120.791)" fill="#d1e8cf"/>
  <path id="パス_27" data-name="パス 27" d="M747.6,513.771a28.432,28.432,0,0,1,23.812,31.085c-.158,1.66,2.435,1.649,2.592,0a31.088,31.088,0,0,0-25.715-33.584C746.656,510.994,745.955,513.491,747.6,513.771Z" transform="translate(-181.067 -120.791)" fill="#fff"/>
  <path id="パス_28" data-name="パス 28" d="M803.757,180.9c12.862-20.942,7.332-47.719-6.9-56.459s-40.615-1.563-53.476,19.379c-11.905,19.385-7.412,44.147,3.952,54.253a1.706,1.706,0,0,0-.6.232l-3.237,2.111a1.728,1.728,0,0,0,.071,2.939l7.106,4.157a1.728,1.728,0,0,0,2.6-1.378l.253-3.856a1.709,1.709,0,0,0-.03-.4C767.649,207.516,791.826,200.323,803.757,180.9Z" transform="translate(-181.067 -120.791)" fill="#fff9c4"/>
  <path id="パス_29" data-name="パス 29" d="M798.779,148.247a28.432,28.432,0,0,1-20.092,33.609c-1.6.466-.633,2.872.957,2.409a31.088,31.088,0,0,0,21.712-36.3C801.012,146.345,798.432,146.616,798.779,148.247Z" transform="translate(-181.067 -120.791)" fill="#fff"/>
  <path id="パス_30" data-name="パス 30" d="M575.824,280.262c-1.076-24.553-20.654-43.638-37.34-42.907s-34.521,21.454-33.446,46.007c1,22.727,18.588,40.723,33.662,42.73a1.706,1.706,0,0,0-.371.53l-1.5,3.562a1.728,1.728,0,0,0,1.705,2.395l8.215-.537a1.728,1.728,0,0,0,1.38-2.6l-1.95-3.336a1.714,1.714,0,0,0-.249-.316C560.821,322.539,576.822,303.039,575.824,280.262Z" transform="translate(-181.067 -120.791)" fill="#ffcdd2"/>
  <path id="パス_31" data-name="パス 31" d="M553.413,256a28.432,28.432,0,0,1,2.181,39.1c-1.065,1.283,1.084,2.734,2.142,1.459a31.088,31.088,0,0,0-2.347-42.234C554.2,253.178,552.212,254.847,553.413,256Z" transform="translate(-181.067 -120.791)" fill="#fff"/>
  <path id="パス_32" data-name="パス 32" d="M652.335,443.144a40.784,40.784,0,0,1-31.9-18.9c-.966-1.544-2.226-3.24-1.558-5.141a3.38,3.38,0,0,1,3.5-2.339c1.971.24,3.243,2.168,3.486,4.016.275,2.1-1.2,3.741-3.029,4.52-4.461,1.9-8.962-1.038-12.6-3.385-8.28-5.348-17.387-10.184-27.42-10.794-9.283-.564-19.237,3.076-24.4,11.126-.9,1.408,1.339,2.71,2.238,1.308,5.121-7.983,15.472-10.851,24.473-9.617a47.576,47.576,0,0,1,15.313,5.2c2.474,1.284,4.873,2.707,7.224,4.2a46.1,46.1,0,0,0,7.085,4.062c4.132,1.7,9.6,1.565,12.487-2.343,2.692-3.645.612-9.715-3.892-10.739a6.085,6.085,0,0,0-7.128,7.239c.449,2.147,2.066,4.248,3.317,6a43.379,43.379,0,0,0,32.8,18.17c1.667.082,1.663-2.51,0-2.592Z" transform="translate(-181.067 -120.791)" fill="#ccc"/>
  <path id="パス_33" data-name="パス 33" d="M901.285,264.547c7.1-3.3,15.81-4.384,23.032-1.316s12.145,10.932,9.809,17.891c-1.059,3.155-3.47,6.258-2.531,9.445.723,2.453,3.245,4.072,5.723,5.224s5.187,2.12,6.978,4.062,2.165,5.285-.073,6.791c-.737.5-1.659.732-2.374,1.254a3.772,3.772,0,0,0-1.164,4.222,8.893,8.893,0,0,0,2.851,3.751c2.541,2.191,5.9,4.7,5.109,7.809a5.478,5.478,0,0,1-3.7,3.458,18.366,18.366,0,0,1-5.427.716l-74.966,2.362a28.422,28.422,0,0,1-7.4-.413,8.762,8.762,0,0,1-5.813-3.9c-1.436-2.657-.493-5.931,1.28-8.412s4.282-4.439,6.355-6.717,3.769-5.123,3.4-8.067c-.293-2.357-1.847-4.395-2.963-6.537s-1.764-4.818-.319-6.789c2.037-2.777,6.927-2.526,9.243-5.113,1.748-1.953,1.41-4.763,1.584-7.281.418-6.057,4.611-11.776,10.58-14.433a20.831,20.831,0,0,1,18.953,1.291Z" transform="translate(-181.067 -120.791)" fill="#2f2e41"/>
  <path id="パス_34" data-name="パス 34" d="M811.513,443.477v12.26l-47.288,5.833v-18.1Z" fill="#9e616a"/>
  <path id="パス_35" data-name="パス 35" d="M1004.465,561.142v39.531h-.5a15.387,15.387,0,0,1-15.386-15.385V561.141Z" transform="translate(-181.067 -120.791)" fill="#2f2e41"/>
  <path id="パス_36" data-name="パス 36" d="M753.056,464.332l-3.01,11.884-47.273-5.954,4.443-17.54Z" fill="#9e616a"/>
  <path id="パス_37" data-name="パス 37" d="M946.411,585.009l-9.705,38.321-.485-.123a15.387,15.387,0,0,1-11.138-18.693h0l5.928-23.405Z" transform="translate(-181.067 -120.791)" fill="#2f2e41"/>
  <path id="パス_38" data-name="パス 38" d="M922.05,447.637l2.553,2.66s16.662,13.065,4.335,47.48l-20.165,58.09,67.588,2.635-1.448,26.544s-98.017,5.452-97.16-10.7,4.474-75.965,4.474-75.965l-20.364-16.354,4.91-27.66Z" transform="translate(-181.067 -120.791)" fill="#2f2e41"/>
  <path id="パス_39" data-name="パス 39" d="M869.693,474l-7.83,8.028-26.253,72.165s-4,18,5,22,66.91,26.375,66.91,26.375l5.913-21.283L868.813,554.5l20.8-27.311,3.13-43.045Z" transform="translate(-181.067 -120.791)" fill="#2f2e41"/>
  <path id="パス_40" data-name="パス 40" d="M870.111,346.692l66.635-13.324,1.448,36.559-17.261,36.79,3.67,43.58-59.72,10.434,1.87-57.3S850.716,380.8,860.163,358Z" transform="translate(-181.067 -120.791)" fill="#e4e4e4"/>
  <path id="パス_41" data-name="パス 41" d="M1018.7,259.967a10.743,10.743,0,0,1-10.092,13.019l-63.9,74.1-14.856-18.03,67.483-67.166a10.8,10.8,0,0,1,21.365-1.921Z" transform="translate(-181.067 -120.791)" fill="#9e616a"/>
  <path id="パス_42" data-name="パス 42" d="M958.618,339a4.812,4.812,0,0,1-1.592,3.681l-17.968,16.175a13.377,13.377,0,1,1-20.675-16.981l12.542-20.76a4.817,4.817,0,0,1,7.191-1.222l18.754,15.5A4.812,4.812,0,0,1,958.618,339Z" transform="translate(-181.067 -120.791)" fill="#e4e4e4"/>
  <path id="パス_43" data-name="パス 43" d="M765.626,434.1a10.743,10.743,0,0,1,11.931-11.358l74.295-63.67,11.983,20.055-76.8,56.28a10.8,10.8,0,0,1-21.411-1.307Z" transform="translate(-181.067 -120.791)" fill="#9e616a"/>
  <path id="パス_44" data-name="パス 44" d="M836.883,364.978a4.812,4.812,0,0,1,2.126-3.4l20.191-13.3a13.377,13.377,0,0,1,17.893,19.891l-15.515,18.643a4.817,4.817,0,0,1-7.293.129l-16.217-18.134a4.811,4.811,0,0,1-1.186-3.832Z" transform="translate(-181.067 -120.791)" fill="#e4e4e4"/>
  <circle id="楕円形_9" data-name="楕円形 9" cx="24.561" cy="24.561" r="24.561" transform="translate(692.882 159.721)" fill="#9e616a"/>
  <path id="パス_45" data-name="パス 45" d="M923.637,301.581c-7.756-.623-14.2-8.371-13.39-16.111a13.009,13.009,0,0,1-11.141,13.246c-3.558.392-7.458-.684-10.555,1.111-3.43,1.988-4.528,6.816-8.1,8.533-3.453,1.659-7.838-.6-9.543-4.033s-1.287-7.55-.157-11.21a31.653,31.653,0,0,1,52.69-12.975c3.261,3.28,5.851,7.461,6.271,12.068s-1.717,9.605-5.854,11.675Z" transform="translate(-181.067 -120.791)" fill="#2f2e41"/>
  <path id="パス_46" data-name="パス 46" d="M563.067,776.692h-381a1,1,0,0,1,0-2h381a1,1,0,0,1,0,2Z" transform="translate(-181.067 -120.791)" fill="#cacaca"/>
</svg>
